<?xml version="1.0" encoding="utf-8"?>
<!-- Generator: Adobe Illustrator 14.0.0, SVG Export Plug-In . SVG Version: 6.00 Build 43363)  -->
<!DOCTYPE svg PUBLIC "-//W3C//DTD SVG 1.1//EN" "http://www.w3.org/Graphics/SVG/1.1/DTD/svg11.dtd">
<svg version="1.1" id="Layer_1" xmlns="http://www.w3.org/2000/svg" xmlns:xlink="http://www.w3.org/1999/xlink" x="0px" y="0px"
	  viewBox="0 0 40 40" enable-background="new 0 0 40 40" xml:space="preserve">
<path d="M35.27,21.108c0.202-0.637,0.23-1.298,0.23-1.915c0-2.065-1.362-2.511-2.387-2.667c-0.836-0.128-3.783-0.217-5.537-0.261
	c0.097-0.121,0.203-0.246,0.311-0.376c0.911-1.085,2.289-2.726,2.146-5.726c-0.088-1.812-0.604-3.131-1.536-3.922
	c-0.896-0.764-1.854-0.754-2.099-0.738c-1.809,0.021-2.07,1.942-2.262,3.345c-0.123,0.912-0.263,1.945-0.701,2.281
	c-1.677,1.288-3.492,2.835-4.236,4.528c-0.79,1.794-1.599,3.28-3.527,3.28h-0.967v-2.402H4.5V34.05h10.206v-2.178
	c2.203,0.067,3.171,0.498,4.009,1.206c1.274,1.078,2.385,1.422,4.573,1.422c2.79,0,6.488-0.076,8.27-0.438
	c0.597-0.121,1.391-0.442,1.775-1.272c0.217-0.47,0.277-0.962,0.307-1.338c0.008-0.102,0.01-0.209,0.012-0.312
	c0.002-0.111,0.006-0.3,0.023-0.409c0.02-0.02,0.039-0.039,0.06-0.063c0.306-0.341,0.654-0.73,0.823-1.338
	c0.164-0.579,0.186-1.171,0.186-1.668c0-0.421-0.106-0.734-0.201-1.009c-0.025-0.075-0.049-0.145-0.07-0.215
	c0.035-0.073,0.117-0.188,0.17-0.265c0.109-0.158,0.234-0.337,0.314-0.542c0.263-0.668,0.284-1.377,0.284-1.991
	c0-0.272-0.018-0.676-0.163-1.067c-0.088-0.236-0.21-0.404-0.33-0.533c0.018-0.016,0.035-0.033,0.052-0.051
	C35.047,21.736,35.172,21.416,35.27,21.108z M13.212,32.567H5.994V18.019h7.218V32.567z M33.846,20.66
	c-0.064,0.201-0.102,0.274-0.117,0.294c-0.019,0.02-0.064,0.056-0.104,0.091c-0.219,0.186-0.586,0.494-0.595,0.991
	c-0.005,0.289,0.122,0.566,0.36,0.783c0.05,0.047,0.099,0.089,0.146,0.128c0.125,0.105,0.127,0.111,0.139,0.143
	c0.063,0.168,0.07,0.394,0.07,0.551c0,0.479-0.014,1.023-0.182,1.452c-0.018,0.045-0.1,0.163-0.152,0.239
	c-0.227,0.325-0.566,0.813-0.405,1.416c0.038,0.143,0.082,0.269,0.12,0.38c0.073,0.215,0.122,0.358,0.122,0.534
	c0,0.399-0.017,0.862-0.13,1.272c-0.071,0.253-0.219,0.432-0.471,0.714c-0.064,0.049-0.18,0.145-0.27,0.307
	c-0.207,0.372-0.215,0.806-0.222,1.157c-0.001,0.085-0.003,0.166-0.008,0.226c-0.02,0.252-0.057,0.576-0.175,0.831
	c-0.037,0.081-0.148,0.324-0.72,0.439c-1.292,0.264-4.123,0.408-7.968,0.408c-2.014,0-2.713-0.314-3.605-1.068
	c-1.069-0.902-2.316-1.48-4.977-1.559v-9.969h0.967c3.063,0,4.21-2.608,4.894-4.167c0.611-1.391,2.256-2.778,3.783-3.951
	c0.922-0.707,1.099-2.002,1.269-3.255c0.085-0.622,0.172-1.265,0.349-1.676c0.154-0.358,0.289-0.385,0.463-0.385
	c0.028,0,0.055-0.002,0.082-0.004c0.005-0.002,0.52-0.034,1.016,0.385c0.599,0.507,0.949,1.498,1.014,2.865
	c0.115,2.424-0.948,3.69-1.802,4.709c-0.53,0.631-1.032,1.228-1.103,1.968c-0.02,0.206,0.047,0.409,0.186,0.563
	c0.139,0.155,0.334,0.245,0.543,0.249c2.031,0.041,5.693,0.144,6.521,0.269c0.91,0.139,1.119,0.365,1.119,1.202
	C34.006,19.692,33.986,20.216,33.846,20.66z"/>
</svg>
