<svg height="512" viewBox="0 0 60 52" width="512" xmlns="http://www.w3.org/2000/svg">
    <g id="Page-1" fill="none" fill-rule="evenodd">
        <g id="015---Suitcase" fill="rgb(0,0,0)" fill-rule="nonzero">
            <path id="Shape" d="m4 52h52c2.209139 0 4-1.790861 4-4v-33c0-2.209139-1.790861-4-4-4v-2c0-1.1045695-.8954305-2-2-2h-4c-1.1045695 0-2 .8954305-2 2v2h-2v-1c-.0049246-4.87782664-3.8947501-8.86388883-8.771-8.988-.5635966-.64123669-1.3752901-1.00975792-2.229-1.012h-10c-.8537099.00224208-1.6654034.37076331-2.229 1.012-4.8762499.12411117-8.7660754 4.11017336-8.771 8.988v1h-2v-2c0-1.1045695-.8954305-2-2-2h-4c-1.1045695 0-2 .8954305-2 2v2c-2.209139 0-4 1.790861-4 4v33c0 2.209139 1.790861 4 4 4zm46-43h4v2h-4zm-6 1v1h-3v-1c-.0066474-1.82394449-1.2463225-3.41240681-3.014-3.862 0-.047.014-.091.014-.138v-2.92c3.4409267.49665255 5.9959255 3.44341782 6 6.92zm-2.253 10.1c.0683525-.0646016.1589507-.1004112.253-.1.0937823-.0005682.1841249.0352821.252.1l2.667 2.546c.0500351.0450456.0793288.108696.081.176v8.909c-.0203506.1652892-.1669292.2854573-.333.273h-5.334c-.1674517.0123106-.3146166-.1101058-.333-.277v-8.909c.0016712-.067304.0309649-.1309544.081-.176zm-16.747-11.1h10c.8382672-.00294569 1.6366637-.35823216 2.2-.979 1.0191412.09962281 1.7971545.95500516 1.8 1.979v1h-18v-1c.0028455-1.02399484.7808588-1.87937719 1.8-1.979.5633363.62076784 1.3617328.97605431 2.2.979zm-1-6c0-.55228475.4477153-1 1-1h10c.5522847 0 1 .44771525 1 1v3c0 .55228475-.4477153 1-1 1h-10c-.5522847 0-1-.44771525-1-1zm-8 7c.0040745-3.47658218 2.5590733-6.42334745 6-6.92v2.92c0 .047.012.091.014.138-1.7676775.44959319-3.0073526 2.03805551-3.014 3.862v1h-3zm-10-1h4v2h-4zm-4 6c0-1.1045695.8954305-2 2-2h37v5.231c-.2328424.1030427-.4467977.2443276-.633.418l-2.667 2.551c-.4447612.4229998-.6975946 1.0092121-.7 1.623v8.909c.0213738 1.2690528 1.0638499 2.2824843 2.333 2.268h5.334c1.2710705.0144628 2.3143483-1.0019841 2.333-2.273v-8.909c-.0027534-.6137153-.2555304-1.1997969-.7-1.623l-2.667-2.546c-.1861486-.1734806-.4001286-.3144438-.633-.417v-5.232h13c1.1045695 0 2 .8954305 2 2v33c0 1.1045695-.8954305 2-2 2h-3v-2c0-.5522847-.4477153-1-1-1s-1 .4477153-1 1v2h-42v-25c0-.5522847-.44771525-1-1-1s-1 .4477153-1 1v25h-3c-1.1045695 0-2-.8954305-2-2z"/>
            <path id="Shape" d="m8 22c.55228475 0 1-.4477153 1-1v-3c0-.5522847-.44771525-1-1-1s-1 .4477153-1 1v3c0 .5522847.44771525 1 1 1z"/>
            <path id="Shape" d="m52 45c.5522847 0 1-.4477153 1-1v-26c0-.5522847-.4477153-1-1-1s-1 .4477153-1 1v26c0 .5522847.4477153 1 1 1z"/>
        </g>
    </g>
</svg>